<?xml version="1.0" encoding="UTF-8"?>
<svg version="1.1" xmlns="http://www.w3.org/2000/svg" width="512" height="512">
<path d="M0 0 C1.17213547 0.00273422 1.17213547 0.00273422 2.36795044 0.00552368 C15.21310952 0.05571094 27.68810996 0.78413803 40.3125 3.3125 C41.16730957 3.47878906 42.02211914 3.64507812 42.90283203 3.81640625 C62.77115268 7.79670421 81.48752075 14.72831543 99.3125 24.3125 C100.30378906 24.82554688 101.29507812 25.33859375 102.31640625 25.8671875 C118.81293848 34.54957288 133.40636173 46.03368447 146.82080078 58.88378906 C148.19415496 60.19915218 149.5789824 61.5025085 150.96484375 62.8046875 C186.50222479 97.05082088 209.4076486 148.91697857 210.48046875 198.20718384 C210.5414143 201.99231519 210.55962093 205.77691656 210.5625 209.5625 C210.56317474 210.36140656 210.56384949 211.16031311 210.56454468 211.98342896 C210.54716872 224.97073977 209.86928775 237.5461769 207.3125 250.3125 C207.14621094 251.16730957 206.97992188 252.02211914 206.80859375 252.90283203 C202.82829579 272.77115268 195.89668457 291.48752075 186.3125 309.3125 C185.79945313 310.30378906 185.28640625 311.29507812 184.7578125 312.31640625 C175.75393253 329.42377819 163.60230186 344.38152349 150.3125 358.3125 C149.51328125 359.16457031 148.7140625 360.01664062 147.890625 360.89453125 C133.9758551 375.33224185 116.89004766 386.83971088 99.3125 396.3125 C98.71131348 396.6410498 98.11012695 396.96959961 97.49072266 397.30810547 C79.55413789 407.02830176 60.30619799 413.42305677 40.3125 417.3125 C39.08635986 417.55806641 39.08635986 417.55806641 37.83544922 417.80859375 C-8.88232645 426.76892798 -59.16331923 418.08679791 -100.6875 395.3125 C-101.7391333 394.73628906 -101.7391333 394.73628906 -102.81201172 394.1484375 C-112.76584492 388.62965674 -121.9020469 382.53768751 -130.6875 375.3125 C-131.21263184 374.88888184 -131.73776367 374.46526367 -132.27880859 374.02880859 C-146.05778037 362.90269686 -158.20217778 350.59322525 -168.6875 336.3125 C-169.80511719 334.81203125 -169.80511719 334.81203125 -170.9453125 333.28125 C-196.78539987 297.34593137 -209.90397378 255.14492776 -209.9375 211.0625 C-209.93817474 210.26359344 -209.93884949 209.46468689 -209.93954468 208.64157104 C-209.92216872 195.65426023 -209.24428775 183.0788231 -206.6875 170.3125 C-206.52121094 169.45769043 -206.35492188 168.60288086 -206.18359375 167.72216797 C-202.20329579 147.85384732 -195.27168457 129.13747925 -185.6875 111.3125 C-185.17445313 110.32121094 -184.66140625 109.32992187 -184.1328125 108.30859375 C-175.45042712 91.81206152 -163.96631553 77.21863827 -151.11621094 63.80419922 C-149.80084782 62.43084504 -148.4974915 61.0460176 -147.1953125 59.66015625 C-133.30780878 45.24902535 -116.22993743 33.76636772 -98.6875 24.3125 C-98.08631348 23.9839502 -97.48512695 23.65540039 -96.86572266 23.31689453 C-81.20992247 14.83270131 -64.69407846 9.00137874 -47.375 4.9375 C-45.85737061 4.57954346 -45.85737061 4.57954346 -44.30908203 4.21435547 C-29.61595643 0.95837202 -15.00435425 -0.07340387 0 0 Z M-40.18359375 35.75 C-55.58629977 51.51314375 -78.6875 85.78003455 -78.6875 108.3125 C-70.22897566 107.66400953 -61.88409145 106.52908242 -53.5 105.25 C-52.26185547 105.06373047 -51.02371094 104.87746094 -49.74804688 104.68554688 C-46.72742362 104.23070399 -43.70726976 103.77296929 -40.6875 103.3125 C-40.42702881 102.49773193 -40.16655762 101.68296387 -39.89819336 100.84350586 C-39.54893799 99.76979736 -39.19968262 98.69608887 -38.83984375 97.58984375 C-38.49687256 96.52757568 -38.15390137 95.46530762 -37.80053711 94.37084961 C-34.58615951 85.53853809 -28.95002062 80.12251649 -21.6875 74.3125 C-17.0675 72.3325 -12.4475 70.3525 -7.6875 68.3125 C-7.6875 51.4825 -7.6875 34.6525 -7.6875 17.3125 C-19.84336523 17.3125 -31.75376955 27.94020982 -40.18359375 35.75 Z M8.3125 17.3125 C8.3125 34.1425 8.3125 50.9725 8.3125 68.3125 C13.5925 70.6225 18.8725 72.9325 24.3125 75.3125 C33.5229255 82.98785458 38.48171378 91.68229196 41.3125 103.3125 C45.93838527 104.02839268 50.56485108 104.74036202 55.19189453 105.44873047 C56.76530184 105.6901699 58.33854624 105.93267345 59.91162109 106.17626953 C62.17503363 106.52657659 64.43900778 106.87303056 66.703125 107.21875 C67.40431458 107.3281189 68.10550415 107.43748779 68.82794189 107.5501709 C72.05243874 108.03895454 75.03859245 108.3125 78.3125 108.3125 C77.77041417 101.57922333 75.40091802 95.78688083 72.875 89.5625 C72.42833984 88.45865967 71.98167969 87.35481934 71.52148438 86.2175293 C60.43231416 59.32084804 44.7027426 31.43847839 16.8828125 19.1875 C13.79916293 18.06018609 13.79916293 18.06018609 8.3125 17.3125 Z M51.3125 23.3125 C51.6839917 23.73732666 52.0554834 24.16215332 52.43823242 24.59985352 C62.26911625 35.94030792 70.3903675 48.00766245 77.3125 61.3125 C77.67021484 61.98071777 78.02792969 62.64893555 78.39648438 63.33740234 C79.52373269 65.46085889 80.61235425 67.5997085 81.6875 69.75 C82.07115723 70.50313477 82.45481445 71.25626953 82.85009766 72.03222656 C85.41931071 77.42725323 86.92111096 82.66614732 88.1640625 88.47265625 C90.90287404 102.86491137 90.90287404 102.86491137 98.86572266 114.58959961 C106.32804804 119.2106872 115.37497513 120.81677611 123.83676147 122.69078064 C131.40614765 124.41724878 138.00285407 127.40002508 144.9375 130.875 C146.04536865 131.42470459 147.1532373 131.97440918 148.29467773 132.54077148 C160.69607796 138.84383386 171.62624864 146.41376705 182.3125 155.3125 C183.9768772 156.64869014 185.64297962 157.98274166 187.3125 159.3125 C180.09410974 129.42583154 164.46906098 103.21338149 144.3125 80.3125 C143.66410156 79.54164062 143.01570313 78.77078125 142.34765625 77.9765625 C138.36314156 73.26019817 134.03048922 69.28222716 129.3125 65.3125 C127.89130859 64.05953125 127.89130859 64.05953125 126.44140625 62.78125 C105.80722351 44.68035369 78.71009965 27.91529674 51.3125 23.3125 Z M-57.99316406 24.74731445 C-76.22414444 30.82759491 -94.02301151 39.11187882 -109.6875 50.3125 C-110.70457031 51.02792969 -111.72164063 51.74335937 -112.76953125 52.48046875 C-122.16525089 59.29507927 -130.50260951 67.10112119 -138.6875 75.3125 C-139.38230469 75.9725 -140.07710937 76.6325 -140.79296875 77.3125 C-162.15152415 97.82953634 -181.78309877 129.88609261 -186.6875 159.3125 C-185.32625 158.1059375 -185.32625 158.1059375 -183.9375 156.875 C-171.13716859 145.96911764 -157.32639137 137.41754377 -142.3125 129.9375 C-141.36818115 129.46022461 -140.4238623 128.98294922 -139.45092773 128.49121094 C-133.46194378 125.62811364 -127.70826206 123.73221593 -121.2578125 122.328125 C-107.01584527 119.63755955 -107.01584527 119.63755955 -95.42333984 111.76574707 C-90.80625887 104.28753258 -89.1798177 95.24827318 -87.30021667 86.77467346 C-85.59669571 79.30401073 -82.6774973 72.73690389 -79.25 65.875 C-78.70400146 64.77414063 -78.15800293 63.67328125 -77.59545898 62.5390625 C-70.3875597 48.39542187 -61.90390754 35.57853766 -50.6875 24.3125 C-53.46131914 22.92559043 -55.14941777 23.85771319 -57.99316406 24.74731445 Z M-19.125 92.6875 C-24.47851411 99.76991102 -25.8565397 106.57253656 -24.6875 115.3125 C-22.25152379 123.03183796 -17.88484983 128.4647854 -10.8125 132.33984375 C-4.31261081 135.18354527 2.76373585 135.37646011 9.5 133.1875 C16.67242828 130.04956263 21.21067683 125.19975659 24.42578125 118.0859375 C26.65253708 111.12119461 26.25433122 104.58495711 23.25 97.9375 C19.34594235 91.08615375 13.92441724 86.55863951 6.3125 84.3125 C-3.714668 83.03424912 -12.14870738 85.09413973 -19.125 92.6875 Z M40.3125 119.3125 C39.92771484 120.43785156 39.92771484 120.43785156 39.53515625 121.5859375 C35.066151 133.53337915 27.91385067 141.82791449 16.3125 147.3125 C13.6725 148.3025 11.0325 149.2925 8.3125 150.3125 C8.3125 167.4725 8.3125 184.6325 8.3125 202.3125 C25.4725 202.3125 42.6325 202.3125 60.3125 202.3125 C62.7875 196.3725 62.7875 196.3725 65.3125 190.3125 C72.10645371 179.89510431 79.63757408 174.53493154 91.3125 170.3125 C89.64536986 155.47734655 87.49167574 140.9012049 84.3125 126.3125 C69.6836315 123.17710259 55.23478388 120.50414842 40.3125 119.3125 Z M-49.6640625 120.3359375 C-50.34874603 120.44217438 -51.03342957 120.54841125 -51.73886108 120.65786743 C-53.18985615 120.88371888 -54.6406682 121.11074877 -56.09130859 121.33886719 C-58.28295251 121.6828623 -60.47539384 122.02137157 -62.66796875 122.359375 C-69.73062608 123.45844025 -76.73319096 124.6403403 -83.6875 126.3125 C-88.94668263 151.75321073 -91.6409373 176.14843262 -92.6875 202.3125 C-64.6375 202.3125 -36.5875 202.3125 -7.6875 202.3125 C-7.6875 185.1525 -7.6875 167.9925 -7.6875 150.3125 C-11.6475 148.6625 -15.6075 147.0125 -19.6875 145.3125 C-30.10489569 138.51854629 -35.46506846 130.98742592 -39.6875 119.3125 C-43.11365412 119.3125 -46.27625581 119.81013199 -49.6640625 120.3359375 Z M-175.9296875 171.3984375 C-183.54862185 179.18727143 -192.6875 191.08840774 -192.6875 202.3125 C-164.9675 202.3125 -137.2475 202.3125 -108.6875 202.3125 C-107.6975 189.1125 -106.7075 175.9125 -105.6875 162.3125 C-103.25694444 145.36805556 -103.25694444 145.36805556 -102.00708008 138.51855469 C-101.59192104 136.02423416 -101.59192104 136.02423416 -101.6875 132.3125 C-126.56906178 132.3125 -158.49142531 154.47375988 -175.9296875 171.3984375 Z M102.3125 132.3125 C103.79854847 144.67292666 105.51923631 156.99324566 107.3125 169.3125 C108.0859375 169.54324219 108.859375 169.77398437 109.65625 170.01171875 C121.60117373 173.75189908 128.45152535 178.48628168 136.3125 188.3125 C138.2925 192.9325 140.2725 197.5525 142.3125 202.3125 C159.1425 202.3125 175.9725 202.3125 193.3125 202.3125 C188.63626017 181.26942075 173.88422148 166.61021239 156.12109375 155.21020508 C130.78436043 139.19486724 130.78436043 139.19486724 102.3125 132.3125 Z M81.875 193.625 C76.82368229 200.2646924 75.36449916 207.0569927 76.3125 215.3125 C77.83825426 222.36911345 81.63275512 227.71503303 87.50390625 231.859375 C93.96037142 235.54878367 99.97376799 236.50334965 107.3125 235.3125 C115.84610535 232.58415012 120.74477948 227.67762488 125.1875 220.125 C127.34086727 212.82747758 127.4475428 205.93410355 124.25 198.9375 C120.34594235 192.08615375 114.92441724 187.55863951 107.3125 185.3125 C97.29977839 184.03609073 88.89488468 186.10492698 81.875 193.625 Z M-192.6875 218.3125 C-187.96006077 239.58597651 -172.96234723 254.21487902 -155.0546875 265.67578125 C-141.07809446 274.63281334 -141.07809446 274.63281334 -125.6875 280.3125 C-125.35878906 279.81621094 -125.03007812 279.31992187 -124.69140625 278.80859375 C-119.68238512 271.65478851 -113.87498527 266.46889629 -105.6875 263.3125 C-105.74284912 262.51779297 -105.79819824 261.72308594 -105.85522461 260.90429688 C-106.11239267 257.20707108 -106.36869847 253.50978596 -106.625 249.8125 C-106.71201172 248.56339844 -106.79902344 247.31429687 -106.88867188 246.02734375 C-107.52811992 236.79087195 -108.1099345 227.55354803 -108.6875 218.3125 C-136.4075 218.3125 -164.1275 218.3125 -192.6875 218.3125 Z M-92.6875 218.3125 C-93.65801636 237.74429767 -93.65801636 237.74429767 -88.6875 260.3125 C-86.87850002 260.58668122 -85.06499271 260.83129074 -83.25 261.0625 C-72.48003276 262.81277937 -63.82679413 267.88838233 -57 276.421875 C-52.10672504 283.71285469 -50.47281004 291.84803004 -48.6875 300.3125 C-34.96904017 302.23233881 -21.62584628 302.73173557 -7.6875 303.3125 C-7.6875 275.2625 -7.6875 247.2125 -7.6875 218.3125 C-35.7375 218.3125 -63.7875 218.3125 -92.6875 218.3125 Z M8.3125 218.3125 C8.3125 246.3625 8.3125 274.4125 8.3125 303.3125 C28.83932076 302.58428156 28.83932076 302.58428156 49.125 300.5 C50.41672119 300.32694336 51.70844238 300.15388672 53.03930664 299.97558594 C63.55840833 298.52178492 73.95097473 296.6287506 84.3125 294.3125 C87.28589721 279.69018206 90.02482587 265.18801909 91.3125 250.3125 C90.56226563 250.05597656 89.81203125 249.79945313 89.0390625 249.53515625 C77.09162085 245.066151 68.79708551 237.91385067 63.3125 226.3125 C62.3225 223.6725 61.3325 221.0325 60.3125 218.3125 C43.1525 218.3125 25.9925 218.3125 8.3125 218.3125 Z M142.3125 218.3125 C140.0025 223.5925 137.6925 228.8725 135.3125 234.3125 C127.63714542 243.5229255 118.94270804 248.48171378 107.3125 251.3125 C106.59660732 255.93838527 105.88463798 260.56485108 105.17626953 265.19189453 C104.9348301 266.76530184 104.69232655 268.33854624 104.44873047 269.91162109 C104.09842341 272.17503363 103.75196944 274.43900778 103.40625 276.703125 C103.2968811 277.40431458 103.18751221 278.10550415 103.0748291 278.82794189 C102.58604546 282.05243874 102.3125 285.03859245 102.3125 288.3125 C109.04577667 287.77041417 114.83811917 285.40091802 121.0625 282.875 C122.16634033 282.42833984 123.27018066 281.98167969 124.4074707 281.52148438 C151.30415196 270.43231416 179.18652161 254.7027426 191.4375 226.8828125 C192.56481391 223.79916293 192.56481391 223.79916293 193.3125 218.3125 C176.4825 218.3125 159.6525 218.3125 142.3125 218.3125 Z M-186.6875 261.3125 C-181.0278409 290.84884592 -163.24823004 318.08857197 -143.6875 340.3125 C-142.71490234 341.46878906 -142.71490234 341.46878906 -141.72265625 342.6484375 C-137.73814156 347.36480183 -133.40548922 351.34277284 -128.6875 355.3125 C-127.74003906 356.1478125 -126.79257813 356.983125 -125.81640625 357.84375 C-105.18222351 375.94464631 -78.08509965 392.70970326 -50.6875 397.3125 C-51.0589917 396.88767334 -51.4304834 396.46284668 -51.81323242 396.02514648 C-65.93165025 379.73879051 -75.8102619 361.85693701 -84.6875 342.3125 C-85.64269531 342.28671875 -86.59789062 342.2609375 -87.58203125 342.234375 C-100.22216369 341.67987268 -110.24811022 339.346291 -119.6875 330.3125 C-121.98768625 327.79667129 -123.89369934 325.20891207 -125.6875 322.3125 C-126.07808594 321.69375 -126.46867187 321.075 -126.87109375 320.4375 C-128.94611675 316.54588177 -129.79331216 313.55565354 -129.49609375 309.16015625 C-129.28330742 304.2134008 -129.14481642 299.70623314 -131.6875 295.3125 C-137.98450459 290.26144882 -146.05188397 287.72244751 -153.46191406 284.72460938 C-158.15658281 282.6693593 -162.34326177 280.07887718 -166.5625 277.1875 C-167.64229126 276.44959229 -167.64229126 276.44959229 -168.74389648 275.69677734 C-174.1530279 271.88831372 -179.06679615 267.67592108 -183.81640625 263.078125 C-185.37994636 261.19811477 -185.37994636 261.19811477 -186.6875 261.3125 Z M184.94287109 262.64599609 C184.08556396 263.54439209 184.08556396 263.54439209 183.2109375 264.4609375 C166.11356178 281.74934535 141.77898163 292.26001352 119.24609375 300.3125 C117.86587036 300.81354248 117.86587036 300.81354248 116.45776367 301.32470703 C114.01744886 302.09110567 111.73635918 302.6507355 109.23950195 303.14013672 C101.06236139 304.82838336 101.06236139 304.82838336 95.21508789 310.36816406 C93.95703211 313.66130368 92.96156366 316.83080444 92.14816284 320.25128174 C91.24874523 324.0098117 90.12006818 327.70144833 89.0234375 331.40625 C88.69922066 332.53324814 88.69922066 332.53324814 88.36845398 333.68301392 C81.99643522 355.40785345 69.69688568 375.03867441 55.3125 392.3125 C53.97630986 393.9768772 52.64225834 395.64297962 51.3125 397.3125 C80.84884592 391.6528409 108.08857197 373.87323004 130.3125 354.3125 C131.08335937 353.66410156 131.85421875 353.01570313 132.6484375 352.34765625 C137.36480183 348.36314156 141.34277284 344.03048922 145.3125 339.3125 C146.56546875 337.89130859 146.56546875 337.89130859 147.84375 336.44140625 C165.94464631 315.80722351 182.70970326 288.71009965 187.3125 261.3125 C186.11332099 261.19623458 186.11332099 261.19623458 184.94287109 262.64599609 Z M-111.6875 287.3125 C-115.57779881 293.01827159 -116.34153092 299.98476351 -115.3203125 306.7421875 C-113.26089276 314.08999374 -108.49291279 319.88897298 -101.9375 323.75 C-95.53671729 326.82729938 -89.14442431 327.47945495 -82.2109375 325.6640625 C-75.62944602 323.01789582 -70.68438528 319.06457264 -67.33203125 312.765625 C-64.34587496 305.54992995 -64.04384731 299.62502031 -66.34375 292.19140625 C-69.23366458 285.32785912 -75.04480536 280.21303633 -81.5625 276.8125 C-94.14902593 274.79865585 -103.51385557 277.22871041 -111.6875 287.3125 Z M69.38671875 313.08203125 C48.88889447 316.42938237 29.2869217 317.69908295 8.3125 319.3125 C8.3125 347.0325 8.3125 374.7525 8.3125 403.3125 C29.39653131 398.62715971 44.07003463 383.8308575 55.46533203 366.02001953 C63.5666578 352.97427534 70.00034315 339.24654518 75.375 324.875 C75.67438477 324.07586182 75.97376953 323.27672363 76.28222656 322.45336914 C76.68586426 321.33369751 76.68586426 321.33369751 77.09765625 320.19140625 C77.45162476 319.21022827 77.45162476 319.21022827 77.81274414 318.20922852 C78.48235825 315.99474567 78.48235825 315.99474567 78.3125 312.3125 C75.11263354 312.3125 72.50381141 312.54508371 69.38671875 313.08203125 Z M-51.6875 316.3125 C-51.96722656 316.869375 -52.24695313 317.42625 -52.53515625 318 C-56.40807702 325.3722479 -60.96585844 332.56867379 -68.6875 336.3125 C-68.20028575 342.35793398 -65.55037536 347.05571306 -62.75 352.3125 C-62.25636963 353.24368652 -61.76273926 354.17487305 -61.25415039 355.13427734 C-50.60129573 374.84639996 -35.69552351 394.82040689 -13.6875 402.3125 C-10.7175 402.8075 -10.7175 402.8075 -7.6875 403.3125 C-7.6875 375.5925 -7.6875 347.8725 -7.6875 319.3125 C-29.66584941 317.2487532 -29.66584941 317.2487532 -51.6875 316.3125 Z " fill="#000000" transform="translate(255.6875,45.6875)"/>
</svg>
